<svg width="168" height="156" viewBox="0 0 168 156" fill="none" xmlns="http://www.w3.org/2000/svg">
<path d="M81.333 37.9193C81.333 41.7852 78.199 44.9193 74.333 44.9193C70.467 44.9193 67.333 41.7852 67.333 37.9193C67.333 34.0533 70.467 30.9193 74.333 30.9193C78.199 30.9193 81.333 34.0533 81.333 37.9193Z" fill="#FF63A5"/>
<path d="M112.333 35.9193C112.333 39.7852 109.199 42.9193 105.333 42.9193C101.467 42.9193 98.333 39.7852 98.333 35.9193C98.333 32.0533 101.467 28.9193 105.333 28.9193C109.199 28.9193 112.333 32.0533 112.333 35.9193Z" fill="#FF63A5"/>
<path d="M132.333 56.9193C132.333 60.7852 129.199 63.9193 125.333 63.9193C121.467 63.9193 118.333 60.7852 118.333 56.9193C118.333 53.0533 121.467 49.9193 125.333 49.9193C129.199 49.9193 132.333 53.0533 132.333 56.9193Z" fill="#FF63A5"/>
<path d="M131.333 85.9193C131.333 89.7852 128.199 92.9193 124.333 92.9193C120.467 92.9193 117.333 89.7852 117.333 85.9193C117.333 82.0533 120.467 78.9193 124.333 78.9193C128.199 78.9193 131.333 82.0533 131.333 85.9193Z" fill="#FF63A5"/>
<path d="M111.333 107.919C111.333 111.785 108.199 114.919 104.333 114.919C100.467 114.919 97.333 111.785 97.333 107.919C97.333 104.053 100.467 100.919 104.333 100.919C108.199 100.919 111.333 104.053 111.333 107.919Z" fill="#FF63A5"/>
<path d="M81.333 112.919C81.333 116.785 78.199 119.919 74.333 119.919C70.467 119.919 67.333 116.785 67.333 112.919C67.333 109.053 70.467 105.919 74.333 105.919C78.199 105.919 81.333 109.053 81.333 112.919Z" fill="#FF63A5"/>
<path d="M56.333 102.919C56.333 106.785 53.199 109.919 49.333 109.919C45.467 109.919 42.333 106.785 42.333 102.919C42.333 99.0533 45.467 95.9193 49.333 95.9193C53.199 95.9193 56.333 99.0533 56.333 102.919Z" fill="#FF63A5"/>
<path d="M64.333 61.9193C64.333 65.7852 61.199 68.9193 57.333 68.9193C53.467 68.9193 50.333 65.7852 50.333 61.9193C50.333 58.0533 53.467 54.9193 57.333 54.9193C61.199 54.9193 64.333 58.0533 64.333 61.9193Z" fill="#FF63A5"/>
<path d="M153.333 120.744C128.25 155.12 74.9521 167.426 37.9593 140.919C29.5127 134.627 24.333 131.419 13.9573 118.836C-9.62819 90.2334 -6.66701 30.4193 48.9531 10.9997C25.333 31.4194 19.9531 73.5 49.2896 101.027C67.9584 115.459 100.067 116.788 116.175 95.1643C128.594 79.1985 129.274 55.013 111.956 41.5873C97.3421 30.175 75.7009 34.5425 65.7988 47.1297C52.7109 64.6986 63.2913 79.4102 59.7676 84.1403C57.7541 86.8432 53.7927 86.519 51.2553 83.5781C38.2305 68.6216 38.9898 42.9192 53.5879 23.3231C71.2062 -0.327424 105.638 -9.87642 136.722 13.2791C169.157 37.4415 177.913 87.0435 153.333 120.744Z" fill="#F02378"/>
<path d="M36.1747 129.127C82.3623 158.806 137.495 140.511 159.416 92.7473C145.073 138.801 88.0335 166.708 36.1747 129.127Z" fill="#FFC4DD"/>
</svg>
