<svg width="256" height="256" viewBox="0 0 256 256" fill="none" xmlns="http://www.w3.org/2000/svg">
<rect width="256" height="256" rx="12" fill="black"/>
<path d="M125.333 87.9193C125.333 91.7852 122.199 94.9193 118.333 94.9193C114.467 94.9193 111.333 91.7852 111.333 87.9193C111.333 84.0533 114.467 80.9193 118.333 80.9193C122.199 80.9193 125.333 84.0533 125.333 87.9193Z" fill="#FF63A5"/>
<path d="M156.333 85.9193C156.333 89.7852 153.199 92.9193 149.333 92.9193C145.467 92.9193 142.333 89.7852 142.333 85.9193C142.333 82.0533 145.467 78.9193 149.333 78.9193C153.199 78.9193 156.333 82.0533 156.333 85.9193Z" fill="#FF63A5"/>
<path d="M176.333 106.919C176.333 110.785 173.199 113.919 169.333 113.919C165.467 113.919 162.333 110.785 162.333 106.919C162.333 103.053 165.467 99.9193 169.333 99.9193C173.199 99.9193 176.333 103.053 176.333 106.919Z" fill="#FF63A5"/>
<path d="M175.333 135.919C175.333 139.785 172.199 142.919 168.333 142.919C164.467 142.919 161.333 139.785 161.333 135.919C161.333 132.053 164.467 128.919 168.333 128.919C172.199 128.919 175.333 132.053 175.333 135.919Z" fill="#FF63A5"/>
<path d="M155.333 157.919C155.333 161.785 152.199 164.919 148.333 164.919C144.467 164.919 141.333 161.785 141.333 157.919C141.333 154.053 144.467 150.919 148.333 150.919C152.199 150.919 155.333 154.053 155.333 157.919Z" fill="#FF63A5"/>
<path d="M125.333 162.919C125.333 166.785 122.199 169.919 118.333 169.919C114.467 169.919 111.333 166.785 111.333 162.919C111.333 159.053 114.467 155.919 118.333 155.919C122.199 155.919 125.333 159.053 125.333 162.919Z" fill="#FF63A5"/>
<path d="M100.333 152.919C100.333 156.785 97.199 159.919 93.333 159.919C89.467 159.919 86.333 156.785 86.333 152.919C86.333 149.053 89.467 145.919 93.333 145.919C97.199 145.919 100.333 149.053 100.333 152.919Z" fill="#FF63A5"/>
<path d="M108.333 111.919C108.333 115.785 105.199 118.919 101.333 118.919C97.467 118.919 94.333 115.785 94.333 111.919C94.333 108.053 97.467 104.919 101.333 104.919C105.199 104.919 108.333 108.053 108.333 111.919Z" fill="#FF63A5"/>
<path d="M197.333 170.744C172.25 205.12 118.952 217.426 81.9594 190.919C73.5128 184.627 68.333 181.419 57.9573 168.836C34.3718 140.233 37.333 80.4193 92.9531 60.9997C69.333 81.4194 63.9531 123.5 93.2897 151.027C111.958 165.459 144.067 166.788 160.175 145.164C172.594 129.198 173.274 105.013 155.956 91.5873C141.342 80.175 119.701 84.5425 109.799 97.1297C96.7109 114.699 107.291 129.41 103.768 134.14C101.754 136.843 97.7928 136.519 95.2554 133.578C82.2305 118.622 82.9898 92.9192 97.5879 73.3231C115.206 49.6726 149.638 40.1236 180.722 63.2791C213.157 87.4415 221.913 137.043 197.333 170.744Z" fill="#F02378"/>
<path d="M80.1747 179.127C126.362 208.806 181.495 190.511 203.417 142.747C189.073 188.801 132.034 216.708 80.1747 179.127Z" fill="#FFC4DD"/>
</svg>
